{
    "asset" : {
        "generator" : "Khronos glTF Blender I/O v3.3.32",
        "version" : "2.0"
    },
    "scene" : 0,
    "scenes" : [
        {
            "name" : "Scene",
            "nodes" : [
                0
            ]
        }
    ],
    "nodes" : [
        {
            "mesh" : 0,
            "name" : "Spitter_Low",
            "translation" : [
                0,
                1.4842336177825928,
                0
            ]
        }
    ],
    "materials" : [
        {
            "doubleSided" : true,
            "name" : "Material",
            "pbrMetallicRoughness" : {
                "baseColorFactor" : [
                    0.800000011920929,
                    0.800000011920929,
                    0.800000011920929,
                    1
                ],
                "metallicFactor" : 0,
                "roughnessFactor" : 0.5
            }
        }
    ],
    "meshes" : [
        {
            "name" : "Plane.001",
            "primitives" : [
                {
                    "attributes" : {
                        "POSITION" : 0,
                        "NORMAL" : 1,
                        "TEXCOORD_0" : 2
                    },
                    "indices" : 3,
                    "material" : 0
                }
            ]
        }
    ],
    "accessors" : [
        {
            "bufferView" : 0,
            "componentType" : 5126,
            "count" : 3622,
            "max" : [
                0.29125961661338806,
                1.070711612701416,
                0.3726423978805542
            ],
            "min" : [
                -0.29125961661338806,
                -1.5005574226379395,
                -0.2370588332414627
            ],
            "type" : "VEC3"
        },
        {
            "bufferView" : 1,
            "componentType" : 5126,
            "count" : 3622,
            "type" : "VEC3"
        },
        {
            "bufferView" : 2,
            "componentType" : 5126,
            "count" : 3622,
            "type" : "VEC2"
        },
        {
            "bufferView" : 3,
            "componentType" : 5123,
            "count" : 5370,
            "type" : "SCALAR"
        }
    ],
    "bufferViews" : [
        {
            "buffer" : 0,
            "byteLength" : 43464,
            "byteOffset" : 0,
            "target" : 34962
        },
        {
            "buffer" : 0,
            "byteLength" : 43464,
            "byteOffset" : 43464,
            "target" : 34962
        },
        {
            "buffer" : 0,
            "byteLength" : 28976,
            "byteOffset" : 86928,
            "target" : 34962
        },
        {
            "buffer" : 0,
            "byteLength" : 10740,
            "byteOffset" : 115904,
            "target" : 34963
        }
    ],
    "buffers" : [
        {
            "byteLength" : 126644,
            "uri" : "data:application/octet-stream;base64,"
        }
    ]
}
